<?xml version="1.0" standalone="no"?>
<!DOCTYPE svg PUBLIC "-//W3C//DTD SVG 20010904//EN"
 "http://www.w3.org/TR/2001/REC-SVG-20010904/DTD/svg10.dtd">
<svg version="1.0" xmlns="http://www.w3.org/2000/svg"
 width="64.000000pt" height="64.000000pt" viewBox="0 0 64.000000 64.000000"
 preserveAspectRatio="xMidYMid meet">

<g transform="translate(0.000000,64.000000) scale(0.100000,-0.100000)"
fill="#000000" stroke="none">
<path d="M259 611 c-16 -16 -29 -39 -29 -51 0 -12 -12 -31 -26 -43 -36 -28
-64 -92 -64 -150 0 -64 -19 -105 -69 -149 -45 -41 -51 -68 -21 -98 16 -16 33
-20 89 -20 67 0 69 -1 81 -31 15 -36 63 -69 100 -69 37 0 85 33 100 69 12 30
14 31 81 31 56 0 73 4 89 20 30 30 24 57 -21 98 -50 44 -69 85 -69 149 0 55
-32 127 -66 150 -15 9 -24 25 -24 40 0 36 -51 83 -90 83 -22 0 -41 -9 -61 -29z
m108 -13 c38 -35 29 -43 -47 -43 -38 0 -70 4 -70 9 0 20 45 56 69 56 13 0 35
-10 48 -22z m28 -81 c50 -27 85 -92 85 -157 1 -60 30 -121 74 -155 37 -28 45
-52 24 -73 -17 -17 -499 -17 -516 0 -21 21 -13 45 23 72 48 37 67 78 75 163 6
55 13 81 33 106 51 67 131 84 202 44z m15 -428 c0 -24 -59 -69 -90 -69 -31 0
-90 45 -90 69 0 7 32 11 90 11 58 0 90 -4 90 -11z"/>
</g>
</svg>
