<?xml version="1.0" standalone="no"?>
<!DOCTYPE svg PUBLIC "-//W3C//DTD SVG 20010904//EN"
 "http://www.w3.org/TR/2001/REC-SVG-20010904/DTD/svg10.dtd">
<svg version="1.0" xmlns="http://www.w3.org/2000/svg"
 width="100.000000pt" height="100.000000pt" viewBox="0 0 100.000000 100.000000"
 preserveAspectRatio="xMidYMid meet">

<g transform="translate(0.000000,100.000000) scale(0.100000,-0.100000)"
fill="#000000" stroke="none">
<path d="M472 948 c-13 -7 -26 -24 -29 -40 l-5 -28 -177 -2 -176 -3 0 -265 0
-265 178 -3 177 -2 0 -150 0 -150 60 0 60 0 0 150 0 150 178 2 177 3 0 265 0
265 -176 3 -177 2 -5 28 c-4 17 -16 33 -32 40 -14 7 -27 12 -28 11 -1 0 -12
-5 -25 -11z m46 -51 c2 -12 -3 -17 -17 -17 -12 0 -21 6 -21 13 0 31 32 34 38
4z m362 -287 l0 -230 -380 0 -380 0 0 230 0 230 380 0 380 0 0 -230z m-360
-400 c0 -123 -1 -130 -20 -130 -19 0 -20 7 -20 130 0 123 1 130 20 130 19 0
20 -7 20 -130z"/>
<path d="M400 660 l0 -120 30 0 30 0 0 120 0 120 -30 0 -30 0 0 -120z"/>
<path d="M540 660 l0 -120 30 0 30 0 0 120 0 120 -30 0 -30 0 0 -120z"/>
<path d="M400 470 c0 -27 3 -30 30 -30 27 0 30 3 30 30 0 27 -3 30 -30 30 -27
0 -30 -3 -30 -30z"/>
<path d="M540 470 c0 -27 3 -30 30 -30 27 0 30 3 30 30 0 27 -3 30 -30 30 -27
0 -30 -3 -30 -30z"/>
</g>
</svg>
