<?xml version="1.0" standalone="no"?>
<!DOCTYPE svg PUBLIC "-//W3C//DTD SVG 20010904//EN"
 "http://www.w3.org/TR/2001/REC-SVG-20010904/DTD/svg10.dtd">
<svg version="1.0" xmlns="http://www.w3.org/2000/svg"
 width="100.000000pt" height="100.000000pt" viewBox="0 0 100.000000 100.000000"
 preserveAspectRatio="xMidYMid meet">

<g transform="translate(0.000000,100.000000) scale(0.100000,-0.100000)"
fill="#000000" stroke="none">
<path d="M265 947 c-3 -7 -4 -105 -3 -217 l3 -205 128 -3 127 -3 0 -43 c0 -29
-5 -46 -14 -49 -8 -3 -20 -32 -26 -64 -6 -32 -14 -67 -17 -79 -8 -36 -82 -64
-169 -64 -70 0 -78 -2 -105 -30 -29 -28 -30 -32 -27 -107 2 -61 6 -78 18 -78
12 0 16 18 20 78 3 54 10 81 20 87 8 5 48 10 88 10 60 0 82 5 131 29 l58 30
12 68 c14 79 25 103 41 87 11 -11 -21 -180 -37 -194 -4 -3 -27 -21 -51 -39
l-43 -33 3 -62 c2 -46 7 -61 18 -61 11 0 16 14 18 50 3 46 7 54 52 95 48 44
51 48 71 143 l21 99 -21 29 c-12 16 -21 43 -21 63 l0 35 128 3 127 3 0 215 0
215 -273 3 c-216 2 -274 0 -277 -11z m515 -207 l0 -180 -240 0 -240 0 0 180 0
180 240 0 240 0 0 -180z"/>
<path d="M520 780 c0 -73 2 -80 20 -80 18 0 20 7 20 80 0 73 -2 80 -20 80 -18
0 -20 -7 -20 -80z"/>
<path d="M524 649 c-10 -17 13 -36 27 -22 12 12 4 33 -11 33 -5 0 -12 -5 -16
-11z"/>
<path d="M258 444 c-30 -16 -58 -61 -58 -94 0 -53 57 -110 110 -110 53 0 110
57 110 110 0 34 -28 78 -60 95 -36 19 -67 19 -102 -1z m99 -46 c29 -27 29 -65
1 -95 -27 -29 -65 -29 -95 -1 -29 27 -29 65 -1 95 27 29 65 29 95 1z"/>
</g>
</svg>
